<svg width="193" height="51.99999999999999" xmlns="http://www.w3.org/2000/svg" xml:space="preserve" version="1.1">

 <g>
  <title>Layer 1</title>
  <path fill="#ffffff" stroke="null" id="svg_2" clip-rule="evenodd" fill-rule="evenodd" d="m8.14633,39.57461c0.00407,-1.24622 0.93638,-2.4646 2.45494,-3.82832l-8.78159,-4.21796c-0.55369,-0.18245 -0.54147,-0.43912 -0.21985,-0.74217l1.86054,-1.20601c0.33791,-0.15771 0.69618,-0.22574 1.08295,-0.14534l10.83755,1.39155l9.02993,-7.42781l-21.0807,-10.83249c-0.53333,-0.23811 -0.57812,-0.50714 -0.0285,-0.81947l3.04119,-1.84304l27.48064,5.86618l8.11799,-6.59288c2.72363,-1.79046 5.36992,-2.59138 7.40145,-2.21102c1.11958,0.21028 1.51449,0.46385 1.86054,1.26167c0.67175,1.56473 -0.37048,3.66753 -2.83356,5.83217l-8.67981,6.16613l7.72308,20.87334l-2.42644,2.30998c-0.41119,0.41437 -0.76539,0.38036 -1.07887,-0.02165l-14.26551,-16.00907l-9.77904,6.85573l1.83205,8.23182c0.10585,0.29068 0.02035,0.56281 -0.19135,0.82257l-1.58777,1.4132c-0.39491,0.24429 -0.73689,0.25357 -0.97709,-0.16699l-5.55312,-6.67019c-1.80355,1.15654 -3.4076,1.86469 -5.05644,1.86469c-0.15064,-0.0031 -0.18321,-0.0433 -0.18321,-0.15462l0,0z" class="st0"/>
  <text font-style="normal" font-weight="bold" transform="matrix(0.946853 0 0 0.940634 2.11345 2.46342)" stroke="#000" xml:space="preserve" text-anchor="start" font-family="sans-serif" font-size="30" id="svg_3" y="36.08724" x="57.90929" stroke-width="0" fill="#ffffff">EXPLORE</text>
 </g>
</svg>